<svg >
<ellipse cx="52" cy="48.5" rx="52" ry="48.5" fill="#5677EC"/>
<path d="M25.5469 79.5625C28.1406 79.4688 30 79.125 31.125 78.5312C33.0312 77.5312 33.9844 75.625 33.9844 72.8125V26.3594C33.9844 23.5469 33.0938 21.6563 31.3125 20.6875C30.25 20.0937 28.3281 19.7187 25.5469 19.5625V17.125H55.2188C60.9375 17.125 65.6875 17.7812 69.4688 19.0938C76.5938 21.5625 80.1562 26.0625 80.1562 32.5938C80.1562 36.5625 78.7031 39.7188 75.7969 42.0625C72.9219 44.375 69.7969 45.8438 66.4219 46.4688V47.3594C69.9844 48.0469 73.0781 49.2031 75.7031 50.8281C80.8281 54.0156 83.3906 58.4531 83.3906 64.1406C83.3906 69.4531 80.9375 73.7656 76.0312 77.0781C71.125 80.3594 64.5938 82 56.4375 82H25.5469V79.5625ZM49.3125 46.2344C55.25 46.2344 59.2344 45.2656 61.2656 43.3281C63.2969 41.3906 64.3125 37.9531 64.3125 33.0156C64.3125 29.3594 63.6406 26.2812 62.2969 23.7812C60.9844 21.2813 58.4375 20.0312 54.6562 20.0312C52.6562 20.0312 51.2656 20.375 50.4844 21.0625C49.7031 21.7188 49.3125 22.9219 49.3125 24.6719V46.2344ZM49.3125 73.1406C49.3438 74.8281 49.5938 76.0625 50.0625 76.8438C50.8438 78.2188 52.3438 78.9062 54.5625 78.9062C59.0938 78.9062 62.2656 77.6719 64.0781 75.2031C65.9219 72.7344 66.8438 69.2188 66.8438 64.6562C66.8438 57.8438 64.8281 53.3125 60.7969 51.0625C58.3594 49.6875 54.5312 49.0469 49.3125 49.1406V73.1406Z" fill="white"/>
</svg>
