<?xml version="1.0" standalone="no"?>
<!DOCTYPE svg PUBLIC "-//W3C//DTD SVG 20010904//EN"
 "http://www.w3.org/TR/2001/REC-SVG-20010904/DTD/svg10.dtd">
<svg version="1.0" xmlns="http://www.w3.org/2000/svg"
 width="1090.000000pt" height="1090.000000pt" viewBox="0 0 1090.000000 1090.000000"
 preserveAspectRatio="xMidYMid meet">
<metadata>
Created by potrace 1.14, written by Peter Selinger 2001-2017
</metadata>
<g transform="translate(0.000000,1090.000000) scale(0.100000,-0.100000)"
fill="#000000" stroke="none">
<path d="M1529 10446 c-2 -2 -26 -6 -54 -10 -168 -20 -398 -85 -505 -141 -14
-7 -41 -21 -60 -30 -34 -15 -138 -79 -196 -120 -97 -67 -169 -129 -253 -219
-25 -27 -53 -57 -62 -66 -51 -54 -229 -324 -229 -347 0 -4 -11 -30 -24 -58
-48 -99 -77 -191 -119 -380 l-22 -100 -2 -3490 c-1 -2110 2 -3512 7 -3545 6
-30 12 -73 16 -95 3 -22 12 -67 20 -100 8 -33 16 -67 18 -76 10 -42 30 -105
36 -114 4 -5 13 -28 20 -50 17 -51 81 -180 130 -260 159 -259 409 -487 685
-622 52 -26 86 -40 190 -79 74 -27 218 -62 330 -81 63 -10 7912 -11 7980 0 79
12 106 17 170 33 33 8 69 16 80 18 11 2 52 16 90 30 39 15 77 29 87 31 9 2 62
27 118 57 56 29 110 57 121 63 10 5 19 13 19 17 0 5 5 8 11 8 14 0 154 104
213 159 269 251 419 504 512 866 9 34 24 123 31 177 4 35 8 1631 8 3548 0
3282 -1 3491 -18 3580 -9 52 -22 112 -28 132 -5 21 -10 40 -10 43 0 18 -76
216 -110 285 -37 76 -134 238 -150 250 -3 3 -17 21 -30 40 -48 71 -205 228
-294 296 -80 60 -204 139 -282 178 -141 70 -352 137 -483 153 -25 2 -63 9 -85
14 -38 8 -7867 13 -7876 5z"/>
</g>
</svg>
